<svg width="501.85" height="501.85" xmlns="http://www.w3.org/2000/svg">
 <g>
  <title>background</title>
  <rect x="-1" y="-1" width="503.85" height="503.85" id="canvas_background" fill="none"/>
 </g>

 <g>
  <title>Layer 1</title>
  <g stroke="null" id="svg_27">
   <path transform="rotate(45 250.4440765380859,295.1224975585937) " stroke="null" d="m247.591114,289.530723l-2.814882,-0.076085l0.076085,2.814882c0.076086,4.56471 3.880011,8.29255 8.444721,8.444721l2.814883,0.076086l-0.076086,-2.814883c-0.152244,-4.56471 -3.880084,-8.368635 -8.444721,-8.444721z" fill="#F8B64C" id="svg_1"/>
   <path transform="rotate(45 250.49787902832023,295.0686950683594) " stroke="null" d="m248.405696,291.074577l-1.978012,-0.076085l0.076086,1.978012c0.076085,3.271397 2.814882,6.010194 6.08628,6.08628l1.978011,0.076085l-0.076085,-1.978012c-0.076086,-3.271397 -2.814956,-6.010194 -6.08628,-6.08628z" fill="#FFD15C" id="svg_2"/>
   <path transform="rotate(45 250.41717529296858,286.13110351562506) " stroke="null" d="m265.3528,286.649925c-0.380356,-0.684699 -0.912957,-1.293313 -1.445485,-1.825913c-1.369398,-1.369398 -3.04314,-2.282355 -4.869054,-2.738797c-3.423496,-0.836871 -7.227421,0.076085 -9.890205,2.738797s-3.575668,6.466636 -2.738797,9.890206c0.456441,1.749827 1.369398,3.499581 2.738797,4.86898c0.532528,0.532528 1.217227,1.065129 1.825913,1.445485c-3.956097,0.152172 -8.064293,-1.293313 -11.107433,-4.336453c-2.434526,-2.434526 -3.803925,-5.401581 -4.260367,-8.520807c-0.608613,-4.488625 0.836871,-9.129421 4.260367,-12.552917s8.140378,-4.868981 12.552917,-4.260368c3.119227,0.456442 6.162367,1.825913 8.520808,4.260368c3.119225,2.967126 4.56471,7.075395 4.412539,11.031419z" fill="#FF7058" id="svg_3"/>
   <path transform="rotate(45 250.44403076171886,276.8733825683594) " stroke="null" d="m265.436949,284.106286c-2.130184,-13.009359 -13.313702,-22.595221 -27.160005,-22.214865l-2.738797,0.076086l-0.076085,2.738797c-0.380356,13.846302 9.205506,25.029821 22.214865,27.160004l7.760022,-7.760022z" fill="#F2F2F2" id="svg_4"/>
   <g stroke="null" id="svg_5">
    <path transform="rotate(45 250.39022827148455,288.29040527343744) " stroke="null" d="m243.581208,293.425681c1.901926,0.760786 3.880011,1.293313 5.934109,1.673742l7.683937,-7.683936c-0.304343,-2.054098 -0.912957,-4.032183 -1.673742,-5.934109l-11.944304,11.944303z" fill="#6e9dbf" id="svg_6"/>
    <path transform="rotate(45 250.44401550292966,263.96899414062494) " stroke="null" d="m256.38223,259.256304c-2.814882,-0.836871 -5.858022,-1.293386 -9.053334,-1.2173l-2.738797,0.076086l-0.076086,2.738797c-0.076085,3.195312 0.380356,6.238452 1.217227,9.053335l10.650991,-10.650918z" fill="#6e9dbf" id="svg_7"/>
   </g>
   <path transform="rotate(45 250.3901824951173,292.70166015624994) " stroke="null" d="m246.396076,296.39141c0.760786,0.152172 1.597656,0.228258 2.358441,0.304343l5.629766,-5.629766c-0.076085,-0.836871 -0.152172,-1.597655 -0.304343,-2.358441l-7.683863,7.683863z" fill="#F2F2F2" id="svg_8"/>
   <ellipse transform="rotate(45 250.42100524902344,273.55975341796875) " stroke="null" cx="250.421007" cy="273.55974" rx="5.85795" ry="5.85795" fill="#40596B" id="svg_9"/>
   <ellipse transform="rotate(45 250.42100524902344,273.55975341796875) " stroke="null" cx="250.421007" cy="273.55974" rx="4.108196" ry="4.108196" fill="#a1a8c3" id="svg_10"/>
   <g transform="rotate(45 272.33776855468744,-94.66865539550781) " stroke="null" id="svg_12"/>
   <g transform="rotate(45 272.33776855468744,-94.66865539550781) " stroke="null" id="svg_13"/>
   <g transform="rotate(45 272.33776855468744,-94.66865539550781) " stroke="null" id="svg_14"/>
   <g transform="rotate(45 272.33776855468744,-94.66865539550781) " stroke="null" id="svg_15"/>
   <g transform="rotate(45 272.33776855468744,-94.66865539550781) " stroke="null" id="svg_16"/>
   <g transform="rotate(45 272.33776855468744,-94.66865539550781) " stroke="null" id="svg_17"/>
   <g transform="rotate(45 272.33776855468744,-94.66865539550781) " stroke="null" id="svg_18"/>
   <g transform="rotate(45 272.33776855468744,-94.66865539550781) " stroke="null" id="svg_19"/>
   <g transform="rotate(45 272.33776855468744,-94.66865539550781) " stroke="null" id="svg_20"/>
   <g transform="rotate(45 272.33776855468744,-94.66865539550781) " stroke="null" id="svg_21"/>
   <g transform="rotate(45 272.33776855468744,-94.66865539550781) " stroke="null" id="svg_22"/>
   <g transform="rotate(45 272.33776855468744,-94.66865539550781) " stroke="null" id="svg_23"/>
   <g transform="rotate(45 272.33776855468744,-94.66865539550781) " stroke="null" id="svg_24"/>
   <g transform="rotate(45 272.33776855468744,-94.66865539550781) " stroke="null" id="svg_25"/>
   <g transform="rotate(45 272.33776855468744,-94.66865539550781) " stroke="null" id="svg_26"/>
  </g>
 </g>
</svg>