<?xml version="1.0" encoding="utf-8"?>
<!-- Generator: Adobe Illustrator 16.0.3, SVG Export Plug-In . SVG Version: 6.00 Build 0)  -->
<!DOCTYPE svg PUBLIC "-//W3C//DTD SVG 1.1//EN" "http://www.w3.org/Graphics/SVG/1.1/DTD/svg11.dtd">
<svg version="1.1" id="Capa_1" xmlns="http://www.w3.org/2000/svg" xmlns:xlink="http://www.w3.org/1999/xlink" x="0px" y="0px"
	 width="183px" height="192px" viewBox="0 0 183 192" enable-background="new 0 0 183 192" xml:space="preserve">
<g>
	<path fill="#A1A8C3" d="M77.027,63.47c0,4.84,3.929,8.767,8.769,8.767s8.769-3.927,8.769-8.767c0-4.838-3.928-8.771-8.769-8.771
		S77.027,58.631,77.027,63.47z"/>
	<path fill="#A1A8C3" d="M164.264,83.456c0-36.287-29.398-65.455-65.453-65.455H21.64c0,124.253,0-17.225,0,160.998
		c4.114,0,8.232,0,12.346,0c0.615-8.473,6.805-15.692,15.629-19.125c-0.1-0.712-0.152-1.431-0.152-2.157
		c0-10.763,10.537-19.495,23.539-19.495c2.435,0,4.781,0.319,6.99,0.897c0.979-5.968,1.923-13.625,2.757-23.469h-1.834l-3.343-6.96
		h16.445l-2.999,6.256c-0.286,5.167-0.237,14.147,2.19,23.847c1.735-0.341,3.525-0.571,5.379-0.571
		c13.002,0,23.543,8.732,23.543,19.495c0,0.727-0.06,1.445-0.156,2.157c8.828,3.433,15.018,10.652,15.626,19.125
		c8.428,0,16.863,0,25.284,0l-23.653-44.328C154.62,122.729,164.264,104.357,164.264,83.456z M55.894,119.127
		c-0.964-3.062-1.405-6.212-1.405-9.284c0-8.068,3.002-15.635,7.238-19.817c1.156,5.717,2.961,11.101,5.17,15.974
		C59.8,107.993,56.787,112.737,55.894,119.127z M97.439,105.214H74.18c-8.991-18.161-13.054-48.156,11.563-69.575
		C110.537,56.919,106.445,86.143,97.439,105.214z M115.696,119.127c-0.89-6.39-3.906-11.134-11-13.128
		c1.941-4.414,3.847-9.845,5.144-16.005c4.248,4.177,7.265,11.762,7.265,19.845C117.104,112.915,116.66,116.065,115.696,119.127z"/>
</g>
</svg>
