<?xml version="1.0" encoding="utf-8"?>
<!-- Generator: Adobe Illustrator 16.0.3, SVG Export Plug-In . SVG Version: 6.00 Build 0)  -->
<!DOCTYPE svg PUBLIC "-//W3C//DTD SVG 1.1//EN" "http://www.w3.org/Graphics/SVG/1.1/DTD/svg11.dtd">
<svg version="1.1" id="Capa_1" xmlns="http://www.w3.org/2000/svg" xmlns:xlink="http://www.w3.org/1999/xlink" x="0px" y="0px"
	 width="444px" height="92px" viewBox="0 0 444 92" enable-background="new 0 0 444 92" xml:space="preserve">
<g opacity="0.9">
	<g>
		<path fill="none" d="M50.386,48.733c1.869,0.524,2.664,1.774,2.898,3.458c0.254-0.807,0.371-1.637,0.371-2.447
			c0-2.129-0.796-4.128-1.915-5.229C51.399,46.139,50.896,47.57,50.386,48.733z"/>
	</g>
	<g>
		<path fill="none" d="M45.392,30.193c-6.486,5.644-5.416,13.547-3.047,18.332h6.128C50.847,43.501,51.924,35.801,45.392,30.193z
			 M47.716,37.526c0,1.275-1.035,2.311-2.311,2.311s-2.311-1.035-2.311-2.311c0-1.274,1.035-2.311,2.311-2.311
			S47.716,36.252,47.716,37.526z"/>
	</g>
	<g>
		<path fill="none" d="M37.156,49.746c0,0.809,0.116,1.639,0.37,2.445c0.235-1.684,1.029-2.934,2.899-3.458
			c-0.582-1.284-1.058-2.703-1.362-4.21C37.947,45.626,37.156,47.62,37.156,49.746z"/>
	</g>
	<g>
		<circle fill="#9AA6CC" cx="89.924" cy="46.757" r="22.572"/>
	</g>
	<g>
		<path fill="#9AA6CC" d="M121.211,31.022c-8.715,8.715-8.715,22.815,0,31.529c8.714,8.714,22.814,8.714,31.528,0l-15.795-15.795
			l15.795-15.734C144.025,22.309,129.925,22.309,121.211,31.022z"/>
	</g>
	<g>
		<polygon fill="#9AA6CC" points="154.555,25.637 154.555,68.058 196.069,68.058 180.214,46.817 196.069,25.637 		"/>
	</g>
	<g>
		<polygon fill="#9AA6CC" points="198.006,67.938 233.104,67.938 233.104,53.656 224.33,53.656 224.33,51.84 233.104,51.84 
			233.104,41.674 224.33,41.674 224.33,39.858 233.104,39.858 233.104,25.576 198.006,25.576 		"/>
	</g>
	<g>
		<polygon fill="#9AA6CC" points="236.07,46.878 244.845,46.878 244.845,68.058 266.025,68.058 266.025,46.878 274.255,46.878 
			274.255,25.637 236.07,25.637 		"/>
	</g>
	<g>
		<polygon fill="#9AA6CC" points="298.401,40.039 277.221,24.003 277.342,67.998 319.702,67.998 319.582,24.003 		"/>
	</g>
	<g>
		<path fill="#9AA6CC" d="M394.44,25.637V41.25L373.14,24.608v43.287l-26.688-45.224l-26.748,45.326c46.516,0,6.756,0,53.437,0
			c0.021,0,0.039,0,0.06,0c38.932,0,3.289,0,42.301,0V25.637H394.44z"/>
	</g>
	<g>
		<circle fill="#9AA6CC" cx="45.405" cy="37.526" r="2.311"/>
	</g>
	<g>
		<path fill="#9AA6CC" d="M66.081,42.793c0-9.562-7.746-17.247-17.247-17.247H28.501c0,32.739,0-4.538,0,42.422
			c1.084,0,2.169,0,3.253,0c0.162-2.233,1.793-4.136,4.118-5.039c-0.026-0.188-0.04-0.377-0.04-0.569
			c0-2.836,2.776-5.136,6.202-5.136c0.642,0,1.26,0.084,1.842,0.235c0.258-1.572,0.507-3.59,0.727-6.184h-0.483l-0.881-1.833h4.333
			l-0.79,1.647c-0.075,1.362-0.063,3.728,0.577,6.283c0.457-0.09,0.929-0.149,1.418-0.149c3.425,0,6.202,2.3,6.202,5.136
			c0,0.192-0.015,0.382-0.04,0.569c2.325,0.903,3.956,2.806,4.117,5.039c2.221,0,4.442,0,6.662,0l-6.232-11.68
			C63.54,53.142,66.081,48.301,66.081,42.793z M37.526,52.191c-0.254-0.807-0.37-1.637-0.37-2.445c0-2.126,0.791-4.12,1.907-5.223
			c0.305,1.507,0.78,2.926,1.362,4.21C38.556,49.258,37.762,50.508,37.526,52.191z M48.473,48.525h-6.128
			c-2.369-4.785-3.439-12.688,3.047-18.332C51.924,35.801,50.847,43.501,48.473,48.525z M53.284,52.191
			c-0.234-1.684-1.029-2.934-2.898-3.458c0.511-1.163,1.014-2.595,1.354-4.218c1.119,1.101,1.915,3.1,1.915,5.229
			C53.655,50.555,53.538,51.385,53.284,52.191z"/>
	</g>
</g>
</svg>
